<svg xmlns="http://www.w3.org/2000/svg" xmlns:xlink="http://www.w3.org/1999/xlink" viewBox="-50 -50 200 200" version="1.1">
  <defs>
    <path fill="#151b20" fill-opacity="0.9" d="M59,39 L85.0689655,24.6521739 C85.0468182,25.0742074 85.0576026,25.0691802 85.0689655,24.6521739 C85.0983438,24.9101971 86.482946,23.2041131 87,22.7391304 C85.6371664,21.9020851 79.0648493,20.0975531 67.6896552,17 C61.8704583,31.0826811 59.1094421,38.4160145 59,39 Z M96.6521739,107.053097 C96.8617665,107.591506 96.7504441,107.732398 96.6521739,108 C96.3747313,108.007642 96.0577047,108.078979 95.6956522,108 C95.5367888,107.60399 64.7368055,62.4330755 60.3043478,54.9734513 C60.1042238,54.9717658 49.8734601,58.8222082 47.8695652,59.7079646 C47.4134787,60.4118459 14.9007047,105.247475 14.3913043,105.159292 C14.0782909,104.795076 26.515939,75.0144372 51.6956522,15.2035398 L1,5.73451327 C11.4503395,3.65829437 16.8723401,2.60091386 17.2608696,2.89380531 C17.3837774,2.67106242 29.6293513,2.11932587 53.6086957,1 C92.9978753,5.67661073 111.983889,10.9391598 111,17.0973451 C109.426076,25.5603781 78.9152766,43.5738142 75.6086957,45.5044248 C75.8430225,45.8958503 96.7135384,106.676603 96.6521739,107.053097 Z" id="path-1"/>
    <filter x="-27.3%" y="-58.0%" width="184.5%" height="180.0%" filterUnits="objectBoundingBox" id="filter-2">
      <feOffset dx="0" dy="0" in="SourceAlpha" result="shadowOffsetOuter1"/>
      <feGaussianBlur stdDeviation="20" in="shadowOffsetOuter1" result="shadowBlurOuter1" fill="#3D4574"/>
      <feColorMatrix values="0 0 0 0 0.61   0 0 0 0 0.4   0 0 0 0 1  0 0 0 0.6 0" type="matrix" in="shadowBlurOuter1"/>
    </filter>
  </defs>
  <g id="Symbols" stroke="none" stroke-width="1" fill="none" fill-rule="evenodd">
    <g id="UI-/-Skins-/-Rarity-/-Purple">
      <g id="Shape">
        <use fill-opacity="1" filter="url(#filter-2)" xlink:href="#path-1"/>
        <use fill-opacity="1" fill="#000000" fill-rule="evenodd" xlink:href="#path-1"/>
      </g>
    </g>
  </g>
</svg>
